<svg xmlns="http://www.w3.org/2000/svg" width="18.518" height="18.518" viewBox="0 0 18.518 18.518">
  <g id="Group_8382" data-name="Group 8382" transform="translate(-970.665 -461.833)">
    <circle id="Ellipse_834" data-name="Ellipse 834" cx="5.434" cy="5.434" r="5.434" transform="translate(974.692 465.657)" fill="#26a69a"/>
    <g id="charging-circle" transform="translate(970.665 461.833)">
      <g id="Group_8381" data-name="Group 8381" transform="translate(0 0)">
        <g id="Group_8380" data-name="Group 8380" transform="translate(0 0)">
          <path id="Path_12355" data-name="Path 12355" d="M17.23,10.324a1.244,1.244,0,0,0-1.183.861A6.922,6.922,0,1,1,7.3,2.482a1.3,1.3,0,0,0,.895-1.237A1.246,1.246,0,0,0,6.566.059,9.455,9.455,0,1,0,18.443,12a1.277,1.277,0,0,0-1.213-1.674Z" transform="translate(-0.001 0.001)" fill="#26a69a"/>
          <path id="Path_12356" data-name="Path 12356" d="M330.332,2.6a6.949,6.949,0,0,1,4.453,4.442,1.27,1.27,0,0,0,1.208.876h.026A1.242,1.242,0,0,0,337.2,6.292a9.484,9.484,0,0,0-6.087-6.1,1.256,1.256,0,0,0-1.643,1.195v.028A1.245,1.245,0,0,0,330.332,2.6Z" transform="translate(-318.744 -0.126)" fill="#26a69a"/>
        </g>
      </g>
    </g>
  </g>
</svg>
